<?xml version="1.0" encoding="UTF-8"?>
<svg version="1.1" xmlns="http://www.w3.org/2000/svg" width="1017" height="1011">
<path d="M0 0 C3.03041369 1.6926635 6.10343837 3.23604847 9.22265625 4.7578125 C30.94556784 15.54695501 50.90692876 29.67573252 70.16699219 44.31054688 C72.08462021 45.73197737 74.04358491 47.07937569 76.01171875 48.4296875 C77.00945313 49.17734375 78.0071875 49.925 79.03515625 50.6953125 C79.03515625 51.3553125 79.03515625 52.0153125 79.03515625 52.6953125 C79.56496094 52.91703125 80.09476563 53.13875 80.640625 53.3671875 C83.88386665 55.1660491 86.56372805 57.52188178 89.34765625 59.9453125 C89.95794678 60.47326416 90.5682373 61.00121582 91.19702148 61.54516602 C105.55054839 74.05169812 119.73195147 87.1390517 132.03515625 101.6953125 C133.06249955 102.87223201 134.09128849 104.04789035 135.12109375 105.22265625 C136.23846731 106.50504624 137.35565343 107.78759958 138.47265625 109.0703125 C139.01801025 109.690271 139.56336426 110.31022949 140.12524414 110.94897461 C144.03515625 115.46866092 144.03515625 115.46866092 144.03515625 117.6953125 C144.69515625 117.6953125 145.35515625 117.6953125 146.03515625 117.6953125 C147.25268555 119.02124023 147.25268555 119.02124023 148.609375 120.87890625 C149.10896729 121.55526123 149.60855957 122.23161621 150.12329102 122.9284668 C150.65108154 123.65590088 151.17887207 124.38333496 151.72265625 125.1328125 C152.80792399 126.60726404 153.89385787 128.08122552 154.98046875 129.5546875 C155.50543945 130.26947266 156.03041016 130.98425781 156.57128906 131.72070312 C158.85594635 134.80247567 161.23582907 137.80607676 163.6328125 140.80078125 C165.27140649 143.01448065 166.62748972 145.3269636 168.03515625 147.6953125 C169.78812511 150.43608571 171.57037129 153.15776257 173.34765625 155.8828125 C177.37434243 162.08141686 181.28566255 168.32449135 185.03515625 174.6953125 C186.03488798 176.3413088 187.03489476 177.98713807 188.03515625 179.6328125 C193.58278529 188.93620074 198.32830345 198.38977137 202.71142578 208.28955078 C204.76268255 212.91289462 206.88383699 217.45797161 209.22265625 221.9453125 C212.49292123 228.35033424 214.88619021 235.02611228 217.328125 241.77734375 C218.36292209 244.58444526 219.48659784 247.35516648 220.59765625 250.1328125 C223.30119119 257.13781836 225.35823173 264.28907658 227.40576172 271.50585938 C228.0259744 273.66337192 228.66863892 275.8127368 229.3203125 277.9609375 C229.64128906 279.02586426 229.64128906 279.02586426 229.96875 280.11230469 C230.55281418 282.04679055 231.1395764 283.98046124 231.7265625 285.9140625 C235.40307838 298.896573 237.9807226 312.07936101 240.16015625 325.3828125 C240.28933441 326.16157745 240.41851257 326.94034241 240.55160522 327.7427063 C242.4990603 339.53486693 244.09297489 351.29501264 244.86254883 363.23022461 C244.98253115 364.94374869 245.12743928 366.6556355 245.29174805 368.36547852 C246.31398255 379.47921199 246.23521911 390.60715111 246.22265625 401.7578125 C246.22171967 402.82733154 246.22078308 403.89685059 246.21981812 404.9987793 C246.15726858 437.96331109 243.43659511 470.43694824 235.55761719 502.52880859 C234.97378806 504.94978976 234.42905854 507.37799106 233.88671875 509.80859375 C231.43630896 520.65377971 228.4486117 531.15106581 224.75317383 541.63647461 C223.99435227 543.81231351 223.26395226 545.99622774 222.5390625 548.18359375 C215.33193887 569.89365333 206.33668823 590.29380026 196.03515625 610.6953125 C195.54144531 611.69949219 195.04773438 612.70367188 194.5390625 613.73828125 C191.60090714 619.51538153 188.28725238 625.09067092 185.03515625 630.6953125 C184.55046875 631.53191406 184.06578125 632.36851562 183.56640625 633.23046875 C177.02383586 644.31860404 170.04411064 655.2557088 162.3515625 665.58203125 C160.37722538 668.23556697 158.43431392 670.90715568 156.5 673.58984375 C155.22020539 675.35427788 153.94025637 677.11860001 152.66015625 678.8828125 C152.04035889 679.74632324 151.42056152 680.60983398 150.78198242 681.49951172 C149.9057019 682.70051514 149.9057019 682.70051514 149.01171875 683.92578125 C148.224021 685.01475708 148.224021 685.01475708 147.42041016 686.12573242 C146.96327637 686.64369385 146.50614258 687.16165527 146.03515625 687.6953125 C145.37515625 687.6953125 144.71515625 687.6953125 144.03515625 687.6953125 C143.8134375 688.22511719 143.59171875 688.75492188 143.36328125 689.30078125 C141.56441965 692.5440229 139.20858697 695.2238843 136.78515625 698.0078125 C136.25720459 698.61810303 135.72925293 699.22839355 135.18530273 699.85717773 C122.67877063 714.21070464 109.59141705 728.39210772 95.03515625 740.6953125 C93.85823674 741.7226558 92.6825784 742.75144474 91.5078125 743.78125 C90.22542251 744.89862356 88.94286917 746.01580968 87.66015625 747.1328125 C86.73021851 747.95084351 86.73021851 747.95084351 85.78149414 748.78540039 C81.26180783 752.6953125 81.26180783 752.6953125 79.03515625 752.6953125 C79.03515625 753.3553125 79.03515625 754.0153125 79.03515625 754.6953125 C77.72509766 755.9128418 77.72509766 755.9128418 75.88671875 757.26953125 C75.21592285 757.76880127 74.54512695 758.26807129 73.85400391 758.7824707 C72.76804932 759.57463989 72.76804932 759.57463989 71.66015625 760.3828125 C70.92716309 760.92446045 70.19416992 761.4661084 69.43896484 762.02416992 C64.03297942 766.00511425 58.56376195 769.88671746 53.03515625 773.6953125 C51.38927574 774.86191261 49.74344344 776.02858074 48.09765625 777.1953125 C42.84823568 780.86663623 37.46941365 784.30526706 32.03515625 787.6953125 C30.97941406 788.35789062 29.92367187 789.02046875 28.8359375 789.703125 C4.14554292 805.07253038 -22.6613011 817.71427731 -49.96484375 827.6953125 C-51.10687256 828.11973633 -51.10687256 828.11973633 -52.27197266 828.55273438 C-132.76051074 858.3522426 -223.50005115 863.32193452 -306.96484375 843.6953125 C-307.84914063 843.49357422 -308.7334375 843.29183594 -309.64453125 843.08398438 C-331.63451833 838.03833665 -352.96210891 830.90269189 -373.96484375 822.6953125 C-374.84140625 822.36273437 -375.71796875 822.03015625 -376.62109375 821.6875 C-382.8144464 819.29461375 -388.81389558 816.50236685 -394.80859375 813.65625 C-397.62853011 812.31745164 -400.46176547 811.01494207 -403.30859375 809.734375 C-439.83920964 793.12919196 -474.77322398 769.09991061 -504.3828125 742.03125 C-505.76901255 740.77716887 -507.16106006 739.52876057 -508.58618164 738.3190918 C-514.79740988 733.02273979 -520.53488995 727.27683708 -526.29223633 721.49829102 C-528.02379075 719.7613765 -529.76062734 718.02987361 -531.49804688 716.29882812 C-537.19893404 710.6016675 -542.78223187 704.87566593 -547.96484375 698.6953125 C-548.76148438 697.76847656 -549.558125 696.84164062 -550.37890625 695.88671875 C-560.13876489 684.28179849 -569.48530439 672.27106275 -577.96484375 659.6953125 C-578.3314209 659.1576123 -578.69799805 658.61991211 -579.07568359 658.06591797 C-587.12335542 646.25510946 -594.7096053 634.19809775 -601.3828125 621.55078125 C-602.79026708 619.01041261 -604.28102951 616.55734996 -605.8046875 614.0859375 C-609.07705031 608.6544692 -611.74501389 603.03767807 -614.33984375 597.2578125 C-615.05092285 595.68737183 -615.05092285 595.68737183 -615.77636719 594.08520508 C-633.34052421 555.0995365 -646.26319999 515.036076 -652.96484375 472.6953125 C-653.17318848 471.43630127 -653.17318848 471.43630127 -653.38574219 470.15185547 C-655.56421251 456.74529283 -656.45639533 443.30706833 -657.15234375 429.7578125 C-657.19522522 428.93209747 -657.23810669 428.10638245 -657.2822876 427.25564575 C-658.15049406 410.13145478 -658.08012874 393.13013357 -657.21484375 376.0078125 C-657.17227448 375.16314423 -657.1297052 374.31847595 -657.08584595 373.44821167 C-655.83741715 349.4872137 -652.38081101 326.07443365 -646.96484375 302.6953125 C-646.74070801 301.71788086 -646.51657227 300.74044922 -646.28564453 299.73339844 C-642.6637553 284.11607791 -638.11970512 268.87235364 -632.96484375 253.6953125 C-632.69091797 252.88352539 -632.41699219 252.07173828 -632.13476562 251.23535156 C-624.75482218 229.62266004 -615.6150204 208.09769443 -603.98144531 188.43359375 C-602.55457035 185.99378835 -601.22965504 183.5028676 -599.90234375 181.0078125 C-588.5266148 160.1149244 -575.07895196 140.06182375 -559.96484375 121.6953125 C-558.67272269 120.04983588 -557.3810671 118.40399366 -556.08984375 116.7578125 C-552.42755487 112.1745551 -548.53671081 107.83793079 -544.5546875 103.53125 C-543.20053963 102.04842745 -541.85028351 100.56113308 -540.54638672 99.03393555 C-535.30091907 92.89064575 -529.64157054 87.18592239 -523.93261719 81.4777832 C-522.22689777 79.76988194 -520.52935348 78.05413205 -518.83203125 76.33789062 C-512.90902821 70.3852094 -506.91186352 64.78546221 -500.31420898 59.57714844 C-498.0462651 57.76053081 -495.90666981 55.85884655 -493.77734375 53.8828125 C-484.55738258 45.61268748 -474.23948078 38.54304109 -464.15234375 31.3828125 C-463.16814453 30.68236816 -463.16814453 30.68236816 -462.1640625 29.96777344 C-452.86484529 23.42234228 -443.16469537 17.53682337 -433.33984375 11.8203125 C-432.29658936 11.21316406 -431.25333496 10.60601562 -430.1784668 9.98046875 C-417.39180861 2.57895895 -404.47276665 -4.31054671 -390.96484375 -10.3046875 C-390.2884082 -10.60898682 -389.61197266 -10.91328613 -388.91503906 -11.22680664 C-367.56640715 -20.79936247 -345.59403735 -28.39558057 -322.96484375 -34.3046875 C-321.59803467 -34.66626953 -321.59803467 -34.66626953 -320.20361328 -35.03515625 C-305.88849616 -38.80468417 -291.57470579 -41.92520469 -276.96484375 -44.3046875 C-276.1351709 -44.44503418 -275.30549805 -44.58538086 -274.45068359 -44.72998047 C-184.99843782 -59.71813059 -83.3101704 -45.52989782 0 0 Z " fill="#E52028" transform="translate(707.96484375,99.3046875)"/>
<path d="M0 0 C2.65175526 0.99988674 4.96520464 2.29552174 7.41137695 3.72949219 C8.97553345 4.64021484 8.97553345 4.64021484 10.57128906 5.56933594 C11.68769775 6.22546875 12.80410645 6.88160156 13.9543457 7.55761719 C16.30461533 8.9296316 18.65684331 10.29827319 21.0090332 11.66699219 C21.60451462 12.01411255 22.19999603 12.36123291 22.81352234 12.71887207 C29.60165371 16.67004617 36.45197909 20.51058388 43.31494141 24.33007812 C47.83788907 26.86577792 52.25846211 29.49358614 56.61450195 32.30761719 C61.06627717 35.17306002 65.60490432 37.75817209 70.27026367 40.25732422 C75.63692227 43.15464458 80.91306643 46.21299806 86.2043457 49.24511719 C87.43031407 49.94665735 88.65630741 50.64815387 89.88232422 51.34960938 C99.20813177 56.68806394 108.5175563 62.0547428 117.8215332 67.43115234 C124.60368562 71.34896741 131.39912546 75.24253456 138.2043457 79.12011719 C148.95987316 85.25515578 159.6504325 91.49322049 170.25512695 97.88574219 C171.56791626 98.67658203 171.56791626 98.67658203 172.90722656 99.48339844 C174.58263781 100.49406844 176.25674583 101.50690377 177.92919922 102.52246094 C182.95697917 105.5585725 188.05572801 108.41998687 193.22192383 111.21337891 C198.59339093 114.14612809 203.8946765 117.20235471 209.2043457 120.24511719 C210.43251791 120.94811069 211.66070839 121.65107228 212.88891602 122.35400391 C230.32822553 132.33946294 247.73071084 142.38735935 265.08178711 152.52539062 C280.26436893 161.39087577 295.49890527 170.16718238 310.77075195 178.87792969 C315.64733777 181.66939364 320.51475088 184.47660763 325.37133789 187.30273438 C330.12874614 190.07106204 334.90204793 192.80795797 339.69262695 195.51855469 C341.90492336 196.78147598 344.11716364 198.04449561 346.3293457 199.30761719 C347.93495361 200.20697998 347.93495361 200.20697998 349.57299805 201.12451172 C350.55864746 201.69024902 351.54429687 202.25598633 352.55981445 202.83886719 C353.44435303 203.33966797 354.3288916 203.84046875 355.24023438 204.35644531 C355.86776611 204.83533203 356.49529785 205.31421875 357.1418457 205.80761719 C357.1418457 206.79761719 357.1418457 207.78761719 357.1418457 208.80761719 C356.13939819 209.36521729 356.13939819 209.36521729 355.11669922 209.93408203 C342.96499351 216.69950796 330.84618985 223.50097897 318.8840332 230.59667969 C315.46991311 232.62082722 312.03008914 234.59640329 308.5793457 236.55761719 C302.36360734 240.09330454 296.18890681 243.69629952 290.0168457 247.30761719 C280.54484491 252.84586633 271.03523671 258.31587051 261.50354004 263.75048828 C251.63999389 269.37432634 241.79793844 275.03401104 231.96679688 280.71435547 C226.51288762 283.86497817 221.05375528 287.00525929 215.5793457 290.12011719 C210.00569212 293.29628008 204.479162 296.54776375 198.95703125 299.81225586 C193.13517398 303.24482238 187.26804908 306.59413974 181.3918457 309.93261719 C174.61071084 313.78643697 167.90751347 317.71288895 161.3215332 321.89355469 C157.67332289 324.0896518 153.94613204 326.10652365 150.20239258 328.13427734 C144.74464979 331.11827296 139.35192269 334.21655587 133.9543457 337.30761719 C133.3489093 337.65388153 132.7434729 338.00014587 132.11968994 338.35690308 C122.75315132 343.71460475 113.41861276 349.125333 104.10449219 354.57373047 C96.58973466 358.96855244 89.05794103 363.33314843 81.5168457 367.68261719 C80.40986328 368.32118652 79.30288086 368.95975586 78.16235352 369.61767578 C72.70728029 372.76165543 67.2441307 375.89003661 61.7668457 378.99511719 C56.10675119 382.21636649 50.53062023 385.56867174 44.9543457 388.93261719 C39.11891485 392.45133189 33.28463622 395.91452428 27.2590332 399.10058594 C24.48342668 400.62056094 21.75404769 402.19501595 19.0246582 403.79589844 C18.09065186 404.34052734 17.15664551 404.88515625 16.19433594 405.44628906 C14.31709811 406.54303747 12.44402854 407.646959 10.57568359 408.75878906 C1.60448845 413.98044429 1.60448845 413.98044429 -2.8581543 413.80761719 C-5.53647715 412.57123565 -7.77760131 411.33064363 -10.2331543 409.74511719 C-11.74927161 408.81020898 -13.26624896 407.8766945 -14.78393555 406.94433594 C-15.59942871 406.43692871 -16.41492188 405.92952148 -17.25512695 405.40673828 C-21.92609812 402.53721463 -26.67853481 399.80733986 -31.4206543 397.05761719 C-33.48211488 395.85624486 -35.54330969 394.6544164 -37.60424805 393.45214844 C-41.72088104 391.05275783 -45.83818944 388.65453035 -49.95581055 386.25683594 C-59.56651886 380.65829716 -69.16575217 375.04238715 -78.7331543 369.37011719 C-86.63671456 364.68515299 -94.57996255 360.07357333 -102.5456543 355.49511719 C-111.52437128 350.33385471 -120.45764309 345.10257344 -129.3581543 339.80761719 C-139.29320382 333.89829671 -149.27466507 328.07682624 -159.29516602 322.3137207 C-168.51134023 317.01312906 -177.69903019 311.66505052 -186.87768555 306.29980469 C-191.01648878 303.8806595 -195.16025703 301.4702957 -199.30737305 299.06542969 C-200.37262207 298.44676025 -201.43787109 297.82809082 -202.53540039 297.19067383 C-204.54901997 296.02141972 -206.56358884 294.85379806 -208.5793457 293.68823242 C-213.24305769 290.97715993 -217.83848849 288.20000026 -222.36987305 285.27246094 C-226.81600045 282.4171389 -231.35310174 279.84284843 -236.00952148 277.34863281 C-241.22814794 274.52552944 -246.34867179 271.53017207 -251.4831543 268.55761719 C-252.63841301 267.88978573 -253.79368664 267.22198008 -254.94897461 266.55419922 C-263.94550082 261.35044699 -272.91443881 256.10152964 -281.8581543 250.80761719 C-305.77036807 236.65462009 -329.77720824 222.67116086 -353.8581543 208.80761719 C-353.8581543 207.81761719 -353.8581543 206.82761719 -353.8581543 205.80761719 C-351.79223633 204.23632812 -351.79223633 204.23632812 -348.8659668 202.54199219 C-347.2396936 201.58957642 -347.2396936 201.58957642 -345.58056641 200.61791992 C-344.3815697 199.9309068 -343.18242834 199.24414606 -341.9831543 198.55761719 C-340.75026276 197.8411981 -339.51792921 197.12381798 -338.28613281 196.40551758 C-335.10094903 194.55180637 -331.90821846 192.7115375 -328.71307373 190.87506104 C-325.86833102 189.23800713 -323.02953374 187.59072362 -320.19018555 185.94433594 C-311.47779765 180.90007791 -302.74645136 175.88904963 -294.01049805 170.88574219 C-278.94242843 162.26826386 -278.94242843 162.26826386 -264.18969727 153.12670898 C-260.77350853 150.93358168 -257.29493732 148.93479882 -253.72143555 147.00683594 C-247.36756904 143.57601898 -241.17956474 139.88827849 -234.9831543 136.18261719 C-226.81707871 131.3154792 -218.62928251 126.49488755 -210.3581543 121.80761719 C-201.8242866 116.96814336 -193.37996707 111.9871898 -184.94906616 106.97076416 C-175.48422635 101.34139232 -165.9686433 95.80473006 -156.42236328 90.31445312 C-146.20812532 84.43973884 -136.02988852 78.50450172 -125.85668945 72.55908203 C-122.77877831 70.76125313 -119.69953401 68.96572811 -116.61987305 67.17089844 C-107.64767034 61.94156682 -98.67796834 56.708688 -89.7331543 51.43261719 C-84.79527449 48.52036981 -79.84041817 45.64332746 -74.8581543 42.80761719 C-67.62508992 38.68970213 -60.45182329 34.47415999 -53.28588867 30.24072266 C-50.63952751 28.67856054 -47.99108767 27.11995718 -45.3425293 25.56152344 C-33.44940097 18.56064621 -33.44940097 18.56064621 -21.6706543 11.37011719 C-16.90458101 8.40776152 -12.05594374 5.66638369 -7.1003418 3.03417969 C-1.30650953 -0.13526863 -1.30650953 -0.13526863 0 0 Z " fill="#FDFDFD" transform="translate(500.858154296875,513.1923828125)"/>
<path d="M0 0 C1.78325684 0.23227295 1.78325684 0.23227295 3.60253906 0.46923828 C56.54757952 7.51868852 110.9109744 24.48764018 157.765625 50.23828125 C159.78484789 51.33812367 161.82065085 52.40865517 163.87890625 53.43359375 C174.92915736 58.97946446 185.70425108 65.15883526 196 72 C197.39186585 72.91545769 198.7837988 73.83081337 200.17578125 74.74609375 C217.8899084 86.43507193 234.88822232 98.73920247 250.93896484 112.64208984 C255.44854512 116.54783412 260.04190637 120.32845983 264.6953125 124.0625 C266.93687839 125.94693506 269.0354261 127.82719937 271 130 C271 130.66 271 131.32 271 132 C271.5887793 132.26425781 272.17755859 132.52851563 272.78417969 132.80078125 C275.08072584 134.04368944 276.60833166 135.35006481 278.453125 137.1875 C279.38125 138.11175781 279.38125 138.11175781 280.328125 139.0546875 C280.96234375 139.69664062 281.5965625 140.33859375 282.25 141 C282.8996875 141.64195312 283.549375 142.28390625 284.21875 142.9453125 C284.83234375 143.56148437 285.4459375 144.17765625 286.078125 144.8125 C286.63918945 145.37582031 287.20025391 145.93914062 287.77832031 146.51953125 C289 148 289 148 289 150 C289.99 150.33 290.98 150.66 292 151 C293.3671875 152.3203125 293.3671875 152.3203125 294.875 154.125 C295.48859375 154.84945312 296.1021875 155.57390625 296.734375 156.3203125 C297.85585937 157.64675781 297.85585937 157.64675781 299 159 C299.96156383 160.10328939 300.92526011 161.20472245 301.890625 162.3046875 C335.64565879 200.80831078 365.22459335 244.56093584 385 292 C385.56190406 293.27427614 386.12582072 294.5476661 386.69140625 295.8203125 C421.76758657 375.92035331 434.25078154 469.44462009 416 587 C415.60723877 588.81419434 415.60723877 588.81419434 415.20654297 590.66503906 C408.93222619 619.29000502 400.67250507 646.89380843 389.875 674.125 C389.46725342 675.15616943 389.05950684 676.18733887 388.6394043 677.24975586 C386.40034868 682.81734501 383.97608731 688.21125602 381.24121094 693.55224609 C379.97972046 696.03999265 378.78459661 698.55038776 377.60546875 701.078125 C373.3804756 710.12403224 369.07983679 719.01142559 363.984375 727.6015625 C362.31929416 730.45317733 360.74149607 733.3259495 359.1796875 736.234375 C356.13082219 741.84584777 352.81999341 747.24948828 349.375 752.625 C348.76527344 753.57793945 348.15554688 754.53087891 347.52734375 755.51269531 C335.23504994 774.59641756 321.66723191 792.67910672 306.76171875 809.80078125 C303.38596208 813.68484286 300.15811074 817.68174835 296.9375 821.6953125 C295.05306494 823.93687839 293.17280063 826.0354261 291 828 C290.34 828 289.68 828 289 828 C288.73574219 828.5887793 288.47148438 829.17755859 288.19921875 829.78417969 C286.95631056 832.08072584 285.64993519 833.60833166 283.8125 835.453125 C283.19632813 836.071875 282.58015625 836.690625 281.9453125 837.328125 C281.30335938 837.96234375 280.66140625 838.5965625 280 839.25 C279.35804688 839.8996875 278.71609375 840.549375 278.0546875 841.21875 C277.13042969 842.13914062 277.13042969 842.13914062 276.1875 843.078125 C275.62417969 843.63918945 275.06085937 844.20025391 274.48046875 844.77832031 C273 846 273 846 271 846 C270.67 846.99 270.34 847.98 270 849 C268.6796875 850.3671875 268.6796875 850.3671875 266.875 851.875 C266.15054688 852.48859375 265.42609375 853.1021875 264.6796875 853.734375 C263.35324219 854.85585937 263.35324219 854.85585937 262 856 C260.89671061 856.96156383 259.79527755 857.92526011 258.6953125 858.890625 C246.58902305 869.50220998 234.37666868 880.01040861 221 889 C219.7866811 889.83567468 218.57453938 890.67305989 217.36328125 891.51171875 C213.92888374 893.88889276 210.48518184 896.25205063 207.03613281 898.60791016 C205.72936836 899.50133593 204.42391108 900.39667837 203.12011719 901.29443359 C185.65799783 913.30375022 167.1128842 923.73431641 148 932.875 C146.91348145 933.39529785 145.82696289 933.9155957 144.70751953 934.45166016 C135.25804419 938.94116709 125.69782546 943.08074088 116 947 C114.62760075 947.55988747 113.25520483 948.11978308 111.8828125 948.6796875 C108.2660454 950.14782238 104.63672729 951.58193187 101 953 C100.08476563 953.35707031 99.16953125 953.71414063 98.2265625 954.08203125 C90.72428378 956.90946662 83.04783605 959.11817568 75.34521484 961.3203125 C73.01175202 961.99659404 70.68736608 962.698476 68.36328125 963.40625 C43.88156627 970.77177354 18.99453969 975.70216213 -6.39648438 978.578125 C-9.79805601 978.97635778 -13.18614163 979.43418033 -16.578125 979.90625 C-55.88357249 985.01022015 -96.81363916 983.42187451 -136 978 C-137.17240234 977.83983398 -138.34480469 977.67966797 -139.55273438 977.51464844 C-151.44473381 975.82857627 -163.18663978 973.40630907 -174.9375 970.9375 C-176.10571289 970.69209473 -177.27392578 970.44668945 -178.47753906 970.19384766 C-184.09254557 968.97642031 -189.50104255 967.58880668 -194.91821289 965.67797852 C-196.97050069 965.00960708 -198.97849603 964.54814972 -201.09375 964.125 C-208.053943 962.65589352 -214.76515366 960.25975976 -221.5 958 C-222.58731415 957.63651459 -222.58731415 957.63651459 -223.69659424 957.26568604 C-244.03974232 950.44443614 -263.75832566 942.5028169 -283 933 C-284.3878192 932.32510604 -285.77583609 931.65061843 -287.1640625 930.9765625 C-308.34862633 920.61779313 -328.58645851 908.36995628 -348 895 C-348.56605957 894.61021973 -349.13211914 894.22043945 -349.71533203 893.81884766 C-362.92126569 884.6686689 -375.95929599 875.00368295 -387.73046875 864.0546875 C-390.15682017 861.85802511 -392.68218468 859.84148287 -395.25 857.8125 C-401.79237784 852.52827175 -407.60607863 846.56116814 -413.4765625 840.55615234 C-416.61671505 837.34856703 -419.80311015 834.18953716 -423.015625 831.0546875 C-429.04973727 825.14016357 -434.71693815 819.15723719 -439.97265625 812.5234375 C-441.82341414 810.21979666 -443.74841539 808.04719785 -445.75 805.875 C-451.40118332 799.59214748 -456.39112957 792.77096067 -461.47070312 786.02587891 C-462.80029431 784.26455265 -464.13913037 782.51109266 -465.484375 780.76171875 C-474.44447642 769.02144401 -482.37209071 756.63579757 -490 744 C-490.51046875 743.16210938 -491.0209375 742.32421875 -491.546875 741.4609375 C-493.04788142 738.98346992 -494.5271136 736.494285 -496 734 C-496.92425781 732.44925781 -496.92425781 732.44925781 -497.8671875 730.8671875 C-502.41441872 723.09973806 -506.37504672 715.18226847 -510.13671875 707.0078125 C-511.6559533 703.71035669 -513.26967716 700.47537641 -514.9375 697.25 C-525.50196484 676.23528075 -534.1853541 653.81134418 -540.40087891 631.13134766 C-541.03007655 628.89300396 -541.7038356 626.671744 -542.38671875 624.44921875 C-555.59494145 580.90938118 -561.23812172 534.96864634 -561.1875 489.5625 C-561.18722809 488.63969238 -561.18695618 487.71688477 -561.18667603 486.76611328 C-561.16685191 472.08675482 -560.62069199 457.59839529 -559 443 C-558.8875293 441.92379395 -558.77505859 440.84758789 -558.65917969 439.73876953 C-557.23089009 426.07558597 -555.51231465 412.50710061 -553 399 C-552.86513184 398.25218262 -552.73026367 397.50436523 -552.59130859 396.73388672 C-549.12990796 377.67023269 -544.6203313 358.58410343 -538.140625 340.30859375 C-537.23599214 337.68453885 -536.43612292 335.07858888 -535.66796875 332.4140625 C-533.80129429 326.12659693 -531.43792325 320.04724391 -529.0625 313.9375 C-528.63259766 312.81794922 -528.20269531 311.69839844 -527.75976562 310.54492188 C-525.60660765 304.97415655 -523.38061548 299.46203915 -520.91381836 294.02270508 C-520.03408514 292.07544627 -519.19073768 290.11676258 -518.359375 288.1484375 C-514.9153172 280.04552034 -511.12573658 272.25335154 -506.90625 264.52734375 C-505.16220766 261.3302223 -503.53734842 258.08453042 -501.9375 254.8125 C-498.90604386 248.70056147 -495.51894234 242.84249026 -492 237 C-491.38253906 235.97132813 -490.76507813 234.94265625 -490.12890625 233.8828125 C-476.32105113 211.15680548 -460.73286209 189.83104024 -443.41796875 169.66064453 C-441.95548016 167.94786089 -440.50794013 166.22328029 -439.0625 164.49609375 C-432.41090178 156.58429555 -425.40276812 149.20937214 -418 142 C-415.33087861 139.34779855 -412.68244154 136.67743066 -410.0546875 133.984375 C-404.18313604 127.99406686 -398.24827746 122.37768361 -391.66015625 117.1640625 C-388.92956894 114.94270366 -386.37829859 112.59652103 -383.8125 110.1875 C-377.52950843 104.40786684 -370.73555707 99.38383071 -363.84814453 94.3515625 C-362.24582254 93.17977194 -360.651465 91.99710545 -359.05859375 90.8125 C-348.45059918 82.971121 -337.41807748 75.75135857 -326.140625 68.9140625 C-324.116779 67.68062402 -322.10514346 66.42680811 -320.109375 65.1484375 C-309.46334762 58.37622637 -298.22777736 52.73414335 -287 47 C-286.22624023 46.60216309 -285.45248047 46.20432617 -284.65527344 45.79443359 C-269.82686715 38.17645024 -254.70046812 31.61984034 -239 26 C-237.57204102 25.48518066 -237.57204102 25.48518066 -236.11523438 24.95996094 C-221.23067761 19.61619149 -206.32094051 14.91404092 -191 11 C-189.5935253 10.62975879 -188.1872602 10.25872002 -186.78125 9.88671875 C-179.62742801 8.01766241 -172.43218934 6.4101124 -165.1875 4.9375 C-164.45450684 4.78716309 -163.72151367 4.63682617 -162.96630859 4.48193359 C-109.37640616 -6.11764133 -54.0876595 -7.32419736 0 0 Z M-160 30 C-160.85158691 30.16999512 -161.70317383 30.33999023 -162.58056641 30.51513672 C-167.7503607 31.56141726 -172.87811921 32.74143691 -178 34 C-179.28487305 34.3105835 -179.28487305 34.3105835 -180.59570312 34.62744141 C-201.19870724 39.64714859 -221.25260507 46.19820758 -240.90722656 54.15429688 C-242.98366598 54.99339932 -245.06554894 55.8176827 -247.1484375 56.640625 C-263.77805923 63.27567609 -279.80952983 71.04503033 -295.29541016 80.02441406 C-297.77368358 81.44280143 -300.29292637 82.78170122 -302.8125 84.125 C-308.38494315 87.15548171 -313.69961951 90.51905063 -319 94 C-319.58330078 94.3820459 -320.16660156 94.7640918 -320.76757812 95.15771484 C-334.59404453 104.22998177 -347.74897549 114.02712883 -360.74707031 124.24658203 C-362.33947616 125.4859252 -363.94429683 126.70939443 -365.55761719 127.92138672 C-366.38165039 128.54416504 -367.20568359 129.16694336 -368.0546875 129.80859375 C-368.80991699 130.37247803 -369.56514648 130.9363623 -370.34326172 131.51733398 C-370.88998535 132.00661377 -371.43670898 132.49589355 -372 133 C-372 133.66 -372 134.32 -372 135 C-372.56460938 135.2475 -373.12921875 135.495 -373.7109375 135.75 C-382.25915896 140.41797076 -389.22206564 149.11954226 -396 156 C-398.75792288 158.76703998 -401.5269989 161.5223667 -404.3046875 164.26953125 C-413.69125184 173.16120475 -413.69125184 173.16120475 -422 183 C-422 183.66 -422 184.32 -422 185 C-422.99 185.33 -423.98 185.66 -425 186 C-426.41102446 187.45314729 -426.41102446 187.45314729 -427.71484375 189.2890625 C-428.23014648 189.97572998 -428.74544922 190.66239746 -429.27636719 191.36987305 C-429.82454102 192.11406494 -430.37271484 192.85825684 -430.9375 193.625 C-432.10641227 195.18744168 -433.27702025 196.748616 -434.44921875 198.30859375 C-435.04138184 199.09733887 -435.63354492 199.88608398 -436.24365234 200.69873047 C-438.35374598 203.4634987 -440.53965117 206.15810052 -442.74365234 208.84814453 C-448.30008653 215.63293791 -453.20935997 222.59268002 -457.79882812 230.06689453 C-459.28525603 232.45907667 -460.81044446 234.82534375 -462.33203125 237.1953125 C-474.04626315 255.58260425 -485.31765678 274.64241267 -493.67578125 294.81640625 C-494.86801043 297.68267995 -496.12955925 300.49767605 -497.4375 303.3125 C-498.29529871 305.20669273 -499.14920474 307.10265128 -500 309 C-500.48855469 310.07765625 -500.97710937 311.1553125 -501.48046875 312.265625 C-514.5850966 342.10465145 -523.38416226 374.98234445 -529 407 C-529.20036865 408.11858398 -529.20036865 408.11858398 -529.40478516 409.25976562 C-533.47746467 432.46048001 -535.35654575 456.46566071 -536 480 C-536.02191406 480.67756348 -536.04382813 481.35512695 -536.06640625 482.05322266 C-536.95537766 512.83385766 -533.78396066 544.81037661 -528 575 C-527.86513184 575.71397949 -527.73026367 576.42795898 -527.59130859 577.16357422 C-521.45917895 609.13976581 -512.27553526 641.21278792 -499 671 C-498.47212891 672.22589844 -498.47212891 672.22589844 -497.93359375 673.4765625 C-496.9828032 675.66457423 -495.99835886 677.83327189 -495 680 C-494.49984375 681.09183594 -493.9996875 682.18367187 -493.484375 683.30859375 C-491.68355508 687.21876749 -489.85056711 691.11314236 -488 695 C-487.70109863 695.62793457 -487.40219727 696.25586914 -487.09423828 696.90283203 C-478.92631596 713.9322212 -469.43865158 730.26798964 -459 746 C-458.20216687 747.23115046 -457.40532138 748.46294141 -456.609375 749.6953125 C-451.2840265 757.88515679 -445.55194599 765.61617349 -439.42626953 773.22216797 C-436.9269195 776.33758511 -434.46553785 779.48280944 -432 782.625 C-431.31466187 783.49523804 -431.31466187 783.49523804 -430.61547852 784.38305664 C-428.79873575 786.69202539 -427.00347889 788.99505547 -425.3125 791.3984375 C-424.879375 791.92695312 -424.44625 792.45546875 -424 793 C-423.34 793 -422.68 793 -422 793 C-421.7525 793.56460938 -421.505 794.12921875 -421.25 794.7109375 C-416.58202924 803.25915896 -407.88045774 810.22206564 -401 817 C-398.23296002 819.75792288 -395.4776333 822.5269989 -392.73046875 825.3046875 C-383.83879525 834.69125184 -383.83879525 834.69125184 -374 843 C-373.34 843 -372.68 843 -372 843 C-371.67 843.99 -371.34 844.98 -371 846 C-369.54685271 847.41102446 -369.54685271 847.41102446 -367.7109375 848.71484375 C-367.02427002 849.23014648 -366.33760254 849.74544922 -365.63012695 850.27636719 C-364.88593506 850.82454102 -364.14174316 851.37271484 -363.375 851.9375 C-361.81255832 853.10641227 -360.251384 854.27702025 -358.69140625 855.44921875 C-357.90266113 856.04138184 -357.11391602 856.63354492 -356.30126953 857.24365234 C-353.53673173 859.35357012 -350.84232946 861.53925028 -348.15258789 863.74316406 C-341.31371483 869.34347248 -334.27074667 874.27245178 -326.75146484 878.91015625 C-324.33064297 880.41650541 -321.94079231 881.9690012 -319.54907227 883.52099609 C-313.44284908 887.48022182 -307.28054797 891.32288644 -301 895 C-300.01386719 895.59167969 -299.02773438 896.18335938 -298.01171875 896.79296875 C-288.44409842 902.4256101 -278.51963124 907.16965024 -268.45800781 911.85107422 C-266.30608735 912.85692818 -264.16281572 913.87798073 -262.0234375 914.91015625 C-239.708045 925.58167837 -216.36010586 933.80806994 -192.515625 940.30908203 C-190.1510028 940.95852699 -187.79408353 941.63066543 -185.4375 942.30859375 C-172.54287917 945.94370484 -159.43665981 948.24563126 -146.23217773 950.45507812 C-144.2113706 950.79577165 -142.19226684 951.14692406 -140.17602539 951.51367188 C-70.52348321 963.93314448 5.86179442 958.20524836 72.8125 935.4375 C74.0820214 935.00778339 75.35155258 934.5780957 76.62109375 934.1484375 C77.73613281 933.76945313 78.85117187 933.39046875 80 933 C81.45795262 932.51967618 82.9162267 932.04032555 84.375 931.5625 C88.76117115 930.0948838 93.13218542 928.58373043 97.5 927.0625 C98.20044434 926.82152588 98.90088867 926.58055176 99.62255859 926.33227539 C104.88164572 924.48920607 109.93285389 922.31403747 115 920 C116.34529785 919.3958728 116.34529785 919.3958728 117.71777344 918.77954102 C130.04281836 913.24412252 142.18747198 907.56089918 154 901 C155.85394072 899.99958117 157.70809437 898.99955679 159.5625 898 C161.37671707 897.00311853 163.18912775 896.00294463 165 895 C166.07636719 894.40703125 167.15273438 893.8140625 168.26171875 893.203125 C176.41815096 888.63625366 184.21216244 883.68011211 191.92822266 878.40673828 C194.13295842 876.90972114 196.35250773 875.43653561 198.57421875 873.96484375 C208.94307634 867.0490865 218.64813096 859.62388188 228.14746094 851.56005859 C230.77195742 849.34991989 233.4489571 847.20989682 236.125 845.0625 C239.70880024 842.13816225 243.02824344 839.10222231 246.23120117 835.76806641 C247.93898279 834.06099194 249.70597917 832.50285429 251.546875 830.94140625 C256.78794836 826.3853108 261.66445186 821.48152479 266.5625 816.5625 C267.46935547 815.65951172 268.37621094 814.75652344 269.31054688 813.82617188 C274.41706693 808.7122457 279.31395014 803.50011082 284 798 C284.94918161 796.91679376 285.89964904 795.83471255 286.8515625 794.75390625 C299.73460021 779.98677884 311.10656478 764.27489591 322 748 C322.51473877 747.23631104 323.02947754 746.47262207 323.55981445 745.68579102 C326.59432199 741.16821394 329.52947006 736.61411108 332.3125 731.9375 C332.69075928 731.30320068 333.06901855 730.66890137 333.45874023 730.01538086 C339.81099693 719.3093155 345.88909586 708.50562637 351.34985352 697.31469727 C352.68562134 694.58278194 354.04862629 691.9191911 355.6171875 689.3125 C356.92323761 687.12837101 357.85510423 685.06403924 358.75 682.6875 C360.22853458 678.87829831 361.80953652 675.13203781 363.47338867 671.39990234 C400.03694352 589.28289072 410.76126459 490.60537917 392 400 C391.71987061 398.66461182 391.71987061 398.66461182 391.43408203 397.30224609 C390.06109802 390.84201908 388.56292393 384.41668985 387 378 C386.77586426 377.07219727 386.55172852 376.14439453 386.32080078 375.18847656 C381.31607284 354.66803241 374.77927437 334.69175931 366.85449219 315.11474609 C365.98887258 312.97246123 365.13848942 310.8245311 364.2890625 308.67578125 C360.63558174 299.52239242 356.50442227 290.7172109 351.99414062 281.95751953 C351.02774481 280.0546311 350.09449135 278.13928595 349.171875 276.21484375 C339.7720021 256.71696415 328.27278382 238.11507605 315.58984375 220.59375 C313.91236212 218.27618493 312.25868776 215.94508826 310.62890625 213.59375 C301.56408396 200.56938638 291.44847332 188.38165221 280.59765625 176.80859375 C278.62602315 174.67685811 276.72530629 172.52267662 274.8359375 170.3203125 C270.31171285 165.12850902 265.44037825 160.29457707 260.5625 155.4375 C259.65951172 154.53064453 258.75652344 153.62378906 257.82617188 152.68945312 C253.24456121 148.11447767 248.6108321 143.67110094 243.69604492 139.45532227 C241.54027599 137.60552543 239.46155415 135.67721729 237.375 133.75 C216.58551821 115.04578538 192.82436405 99.56150624 168.92822266 85.16748047 C167.34441121 84.20853056 165.7703926 83.23342468 164.19921875 82.25390625 C156.74498579 77.631029 148.88360399 73.82265226 141 70 C140.15872559 69.59168945 139.31745117 69.18337891 138.45068359 68.76269531 C121.59789239 60.60722002 104.66074509 53.23396024 87 47 C86.05769531 46.66677734 85.11539063 46.33355469 84.14453125 45.99023438 C71.08692151 41.41058393 58.0688411 37.56382878 44.55908203 34.58105469 C41.99648152 33.99920111 39.44978595 33.37134875 36.90234375 32.7265625 C-26.99822119 16.61594841 -95.61236404 16.93631256 -160 30 Z " fill="#E52028" transform="translate(570,13)"/>
<path d="M0 0 C0.66 0 1.32 0 2 0 C2.1302333 34.01814569 2.25778461 68.03630041 2.38218227 102.05446792 C2.3971859 106.1568361 2.41220972 110.25920421 2.42724609 114.36157227 C2.43023671 115.17759344 2.43322732 115.99361461 2.43630856 116.83436369 C2.47775064 128.13099794 2.52026445 139.42762767 2.56370163 150.72425441 C2.58177679 155.43068992 2.5997175 160.13712593 2.61764956 164.84356198 C2.63257219 168.75873237 2.6475653 172.67390246 2.6627121 176.58907199 C2.7261651 193.02108967 2.78427268 209.45308363 2.82135773 225.88518427 C2.83547367 232.12002758 2.8504843 238.35486884 2.86552906 244.58970997 C2.86923459 246.14042575 2.87287333 247.6911417 2.87644482 249.2418578 C2.92131228 268.68830097 3.01949249 288.1329973 3.21315622 307.57855922 C3.33308716 319.62763727 3.42664867 331.67671135 3.50010061 343.72616261 C3.54871176 351.4539615 3.62488628 359.18049713 3.73760104 366.9076307 C3.8196768 372.71097148 3.85547961 378.51399743 3.87364769 384.31791043 C3.88869846 386.6813977 3.91937005 389.04484466 3.96677589 391.40790439 C4.02922451 394.61993866 4.03640976 397.82749985 4.02966309 401.0400238 C4.06123646 401.97081711 4.09280984 402.90161042 4.12533998 403.86060959 C4.08471205 406.52793113 3.95311771 408.50502237 3 411 C0.28353504 413.60055784 -2.6611336 415.30652293 -6 417 C-6.93328125 417.53367187 -7.8665625 418.06734375 -8.828125 418.6171875 C-9.62734375 419.03226562 -10.4265625 419.44734375 -11.25 419.875 C-16.46718604 422.65847076 -21.47012478 425.71797354 -26.46875 428.875 C-30.21905013 431.18438649 -34.09793957 433.24826016 -37.97021484 435.34423828 C-43.3774275 438.29925168 -48.71631846 441.37386882 -54.0625 444.4375 C-55.2921337 445.1412318 -56.52178909 445.84492568 -57.75146484 446.54858398 C-68.03020921 452.43326014 -78.29224682 458.34684385 -88.546875 464.2734375 C-92.92872108 466.80573382 -97.31441795 469.33117618 -101.703125 471.8515625 C-112.67861247 478.15936907 -123.60572264 484.52931026 -134.44116211 491.07495117 C-139.20965725 493.94841993 -144.01349312 496.70618157 -148.92578125 499.328125 C-160.78491899 505.77756712 -172.43180813 512.63324958 -184.05297852 519.5 C-188.2039762 521.95083151 -192.3720106 524.3669747 -196.5625 526.75 C-202.77823836 530.28568735 -208.95293889 533.88868234 -215.125 537.5 C-224.59700079 543.03824914 -234.10660899 548.50825332 -243.63830566 553.94287109 C-253.49900851 559.565088 -263.33883315 565.22210429 -273.16625977 570.90234375 C-278.70326522 574.10190297 -284.24904668 577.28420985 -289.8125 580.4375 C-295.15114016 583.47591125 -300.37845301 586.66895684 -305.57421875 589.9453125 C-309.28692912 592.17209204 -313.06932214 594.2304389 -316.87573242 596.29150391 C-322.10807154 599.15279243 -327.28555928 602.1100364 -332.46313477 605.06884766 C-334.32630696 606.13288501 -336.19143526 607.1934379 -338.05664062 608.25390625 C-339.26314104 608.94249776 -340.46952546 609.63129255 -341.67578125 610.3203125 C-343.2832019 611.23707764 -343.2832019 611.23707764 -344.9230957 612.17236328 C-348.03023556 614.01795949 -351.01186601 615.96944686 -354 618 C-354.66 617.67 -355.32 617.34 -356 617 C-346.34044743 600.06464479 -336.64393096 583.15153551 -326.88964844 566.27050781 C-323.61217339 560.59802 -320.33717018 554.92410736 -317.0625 549.25 C-316.43069824 548.15582764 -315.79889648 547.06165527 -315.14794922 545.93432617 C-311.93279323 540.36318531 -308.73494615 534.78304002 -305.5625 529.1875 C-302.52408875 523.84885984 -299.33104316 518.62154699 -296.0546875 513.42578125 C-293.81080575 509.68455636 -291.73714251 505.87198643 -289.66015625 502.03637695 C-286.70279576 496.6274516 -283.62748202 491.28594266 -280.5625 485.9375 C-279.8595065 484.70932779 -279.15654491 483.48113731 -278.45361328 482.25292969 C-268.48985011 464.85151135 -258.46263678 447.48782951 -248.33935547 430.17871094 C-243.84472481 422.4797501 -239.41409842 414.74526323 -235 407 C-229.74964783 397.78811547 -224.46587801 388.59727304 -219.125 379.4375 C-218.53589844 378.42623047 -217.94679688 377.41496094 -217.33984375 376.37304688 C-215.28867339 372.862671 -213.2557708 369.3836562 -211 366 C-210.28457031 366.28875 -209.56914062 366.5775 -208.83203125 366.875 C-206.12785577 367.9492104 -203.41596561 368.98916469 -200.6875 370 C-199.80449219 370.33 -198.92148437 370.66 -198.01171875 371 C-180.59828266 376.78189318 -161.30058368 375.52084577 -144.7890625 367.42578125 C-127.90051667 357.2784617 -117.09130821 342.32624989 -111.6875 323.48046875 C-108.25637902 306.11041879 -111.65643241 286.51302808 -121.21484375 271.66479492 C-126.95104771 263.26780785 -134.81831323 255.59084338 -144 251 C-142.70891809 247.60997279 -141.24218459 244.47839169 -139.453125 241.32421875 C-138.94539551 240.42662842 -138.43766602 239.52903809 -137.91455078 238.60424805 C-137.36524902 237.64172119 -136.81594727 236.67919434 -136.25 235.6875 C-135.67362793 234.67276611 -135.09725586 233.65803223 -134.50341797 232.61254883 C-129.26959599 223.4219122 -123.93975958 214.28811786 -118.59765625 205.16015625 C-112.99348498 195.57814024 -107.46250852 185.95379836 -101.921875 176.33496094 C-99.94955498 172.91246456 -97.97518797 169.49115412 -96 166.0703125 C-88.3514607 152.82992714 -88.3514607 152.82992714 -80.75 139.5625 C-74.77724139 129.09094682 -68.73151999 118.66106114 -62.640625 108.2578125 C-56.85715726 98.37684452 -51.11297308 88.47899943 -45.5 78.5 C-36.8678782 63.15811329 -28.0175275 47.94319323 -18.90698242 32.88037109 C-16.87373063 29.50391761 -14.92977974 26.09576095 -13.0625 22.625 C-10.37597686 17.63790493 -7.58601363 12.71571314 -4.75 7.8125 C-4.31308838 7.04437988 -3.87617676 6.27625977 -3.42602539 5.48486328 C-2.34093382 3.62223188 -1.1771091 1.8058886 0 0 Z " fill="#FDFCFC" transform="translate(485,77)"/>
<path d="M0 0 C0.66 0 1.32 0 2 0 C2.37060547 0.67651611 2.74121094 1.35303223 3.12304688 2.05004883 C10.83401742 16.09755897 18.70966123 30.01091223 26.92773438 43.76953125 C33.81884846 55.3240575 40.47851736 67.00470519 47.12475586 78.70141602 C52.68095718 88.47486167 58.26974815 98.22816285 63.9375 107.9375 C64.54013672 108.97092529 65.14277344 110.00435059 65.76367188 111.0690918 C69.76142386 117.91283701 73.8096477 124.72226528 77.9375 131.48828125 C80.21912582 135.30301759 82.31505856 139.2173887 84.43359375 143.12426758 C86.91023154 147.67107501 89.45176685 152.18052655 92 156.6875 C92.5583252 157.67516357 93.11665039 158.66282715 93.69189453 159.68041992 C98.27309445 167.76162596 102.93713304 175.79257062 107.62915039 183.80981445 C111.92466381 191.14997927 116.19046162 198.50668423 120.4375 205.875 C121.35704468 207.46997314 121.35704468 207.46997314 122.29516602 209.09716797 C125.24869334 214.22175972 128.20015878 219.34753597 131.1504364 224.47399902 C132.53659738 226.88217475 133.92352749 229.28990699 135.31057739 231.6975708 C136.29239298 233.40258234 137.27303984 235.1082667 138.25366211 236.81396484 C138.84671143 237.84344238 139.43976074 238.87291992 140.05078125 239.93359375 C140.57325439 240.84165771 141.09572754 241.74972168 141.6340332 242.68530273 C142.69977966 244.49126201 143.83680752 246.25521129 145 248 C144.9375 249.9609375 144.9375 249.9609375 144 252 C141.8125 253.7890625 141.8125 253.7890625 139 255.625 C125.18692043 265.31744623 116.52334396 279.50986668 113 296 C111.62286944 315.78319287 113.20519091 333.43298313 126.0078125 349.5234375 C127.21576523 350.87810514 128.44824642 352.21171666 129.71484375 353.51171875 C131 355 131 355 131 357 C131.5878125 357.27328125 132.175625 357.5465625 132.78125 357.828125 C134.93481556 358.9655716 136.6176844 360.21442675 138.5 361.75 C153.36837302 372.99059994 169.8636158 375.34386867 188 374 C195.51005121 372.93772302 202.03921749 370.31986271 208.8203125 366.98828125 C211 366 211 366 213 366 C214.62509014 368.84390775 216.25017605 371.68781793 217.87524414 374.53173828 C219.3118382 377.04578835 220.74853682 379.55977862 222.18530273 382.07373047 C225.82443319 388.4414256 229.46259291 394.80966963 233.09765625 401.1796875 C244.31532068 420.83464596 255.584946 440.45886647 267 460 C277.43603806 477.86518165 287.75316202 495.79810078 298.00869751 513.76739502 C304.68104271 525.45748115 311.40215294 537.11909414 318.13671875 548.7734375 C320.0203505 552.03524007 321.90122321 555.29861844 323.78125 558.5625 C340.67657744 587.90712245 340.67657744 587.90712245 358 617 C357.34 617.33 356.68 617.66 356 618 C353.79882812 616.97460937 353.79882812 616.97460937 351.03125 615.34375 C349.99830811 614.74087158 348.96536621 614.13799316 347.90112305 613.5168457 C346.77875244 612.85128662 345.65638184 612.18572754 344.5 611.5 C343.32837943 610.81319501 342.15625239 610.12725334 340.98364258 609.44213867 C338.53999266 608.01346774 336.0985908 606.58106218 333.65869141 605.14599609 C328.02127461 601.83422107 322.35328428 598.57541696 316.6875 595.3125 C315.61056885 594.69093018 314.5336377 594.06936035 313.42407227 593.42895508 C306.60662784 589.49495944 299.7761212 585.58454093 292.9375 581.6875 C285.90583644 577.67994349 278.91125808 573.61512444 271.94335938 569.49780273 C267.79355769 567.04774802 263.62675092 564.632321 259.4375 562.25 C253.22176164 558.71431265 247.04706111 555.11131766 240.875 551.5 C231.98714147 546.30329701 223.06858102 541.1625586 214.125 536.0625 C197.67670677 526.68150991 181.25478527 517.25557421 164.91699219 507.68310547 C163.93375977 507.10705566 162.95052734 506.53100586 161.9375 505.9375 C160.96329102 505.36660645 159.98908203 504.79571289 158.98535156 504.20751953 C151.70903356 499.95919718 144.3664439 495.8396292 137 491.75 C129.32709415 487.48924027 121.747948 483.14672132 114.3828125 478.37011719 C110.03888067 475.56717507 105.55656851 473.09330173 101.0078125 470.63818359 C95.60448228 467.69529838 90.27563284 464.62157387 84.9375 461.5625 C83.70932779 460.8595065 82.48113731 460.15654491 81.25292969 459.45361328 C28.41875973 429.20164492 28.41875973 429.20164492 8.0234375 416.76953125 C5.07074911 415.04140743 2.06591243 413.51538194 -1 412 C-1.03304726 389.45834084 -1.05172216 366.9166799 -1.0625 344.375 C-1.0629343 343.49438117 -1.06336861 342.61376234 -1.06381607 341.70645809 C-1.10005554 266.04843156 -0.8325118 190.39212546 -0.50902146 114.7349664 C-0.49997178 112.61840037 -0.49093415 110.50183429 -0.48189783 108.38526821 C-0.327572 72.2568171 -0.16702188 36.12839472 0 0 Z " fill="#FDFDFD" transform="translate(518,77)"/>
<path d="M0 0 C0.85529297 -0.01224609 1.71058594 -0.02449219 2.59179688 -0.03710938 C8.11052454 -0.04973804 12.76328986 0.64332156 18.0625 2.1875 C19.19751953 2.46980469 19.19751953 2.46980469 20.35546875 2.7578125 C35.47196118 7.18367214 49.31926979 18.57322905 57.0625 32.1875 C61.73601604 41.16888393 65.28853818 49.99700273 66.0625 60.1875 C66.16691406 61.48494141 66.16691406 61.48494141 66.2734375 62.80859375 C66.95680499 80.49729839 61.08070853 97.62537417 49.62109375 111.046875 C39.0993419 122.13530053 24.22575592 132.15306648 8.4921875 133.1328125 C7.69039063 133.15085937 6.88859375 133.16890625 6.0625 133.1875 C4.45761719 133.24550781 4.45761719 133.24550781 2.8203125 133.3046875 C-15.52853687 133.6660434 -31.57655254 128.92573197 -45.51171875 116.59765625 C-58.16624178 104.02464383 -66.87708501 89.16709942 -67.30834961 71.03955078 C-67.34394989 49.79246563 -61.84130986 33.49743143 -47 17.875 C-33.57607652 5.18663397 -18.26308954 0.01370074 0 0 Z " fill="#E62028" transform="translate(502.9375,653.8125)"/>
<path d="M0 0 C0.33 0 0.66 0 1 0 C1 20.79 1 41.58 1 63 C0.67 63 0.34 63 0 63 C-0.33 44.19 -0.66 25.38 -1 6 C-1.99 6.66 -2.98 7.32 -4 8 C-2.87548273 5.0280615 -1.77706209 2.66559313 0 0 Z " fill="#FCF2F3" transform="translate(485,77)"/>
<path d="M0 0 C0.33 0 0.66 0 1 0 C1 7.92 1 15.84 1 24 C0.67 24 0.34 24 0 24 C-0.33 18.06 -0.66 12.12 -1 6 C-1.99 6.66 -2.98 7.32 -4 8 C-2.87548273 5.0280615 -1.77706209 2.66559313 0 0 Z " fill="#FAE5E6" transform="translate(485,77)"/>
<path d="M0 0 C0.33 0 0.66 0 1 0 C1 1.98 1 3.96 1 6 C-0.65 6.66 -2.3 7.32 -4 8 C-2.87548273 5.0280615 -1.77706209 2.66559313 0 0 Z " fill="#F7D1D2" transform="translate(485,77)"/>
</svg>
